  <svg width="" height="" fill="rgb(254, 254, 255)" viewBox="0 0 752 752" xmlns="http://www.w3.org/2000/svg">
        <defs>
            <clipPath id="a">
                <path d="m149 139.21h454v473.58h-454z"/>
            </clipPath>
        </defs>
    <g clip-path="url(#a)">
        <path d="m486.55 174.87v-12.84c0-29.957 47.074-29.957 47.074 0v4.2812c15.691-8.5586 34.234 2.8516 34.234 19.969v29.957c15.691-8.5586 34.234 1.4258 34.234 19.969v376.58h-141.22v-97l-45.645-61.336v-104.13c0-18.543 21.398-29.957 37.086-21.398v-134.09c0-18.543 18.543-28.527 34.234-19.969zm-221.1 0v-12.84c0-29.957-47.074-29.957-47.074 0v4.2812c-15.691-8.5586-34.234 2.8516-34.234 19.969v29.957c-15.691-8.5586-34.234 1.4258-34.234 19.969v376.58h142.64v-97l44.219-61.336v-104.13c0-18.543-21.398-29.957-37.086-21.398v-134.09c0-18.543-18.543-28.527-34.234-19.969zm-69.895 203.98v-192.57c0-14.266 22.824-14.266 22.824 0v192.57h12.84c0-71.324-1.4258-144.07-1.4258-216.82 0-15.691 24.25-15.691 24.25 0v216.82h11.41v-184.01c0-15.691 22.824-14.266 22.824 0v225.38h11.41v-69.895c0-2.8516 1.4258-7.1328 4.2812-8.5586 7.1328-8.5586 21.398-2.8516 21.398 8.5586v102.7l-45.645 58.484v89.867h-118.39v-365.17c0-14.266 22.824-15.691 22.824 0v142.64h11.41zm360.89 0v-192.57c0-14.266-22.824-14.266-22.824 0v192.57h-11.41v-216.82c0-15.691-24.25-15.691-24.25 0v216.82h-11.41v-184.01c0-15.691-22.824-14.266-22.824 0v225.38h-11.41v-69.895c0-2.8516-1.4258-7.1328-4.2812-8.5586-7.1328-8.5586-21.398-2.8516-21.398 8.5586v102.7l45.645 58.484v89.867h118.39v-365.17c0-14.266-22.824-15.691-22.824 0v142.64h-11.41z"/>
    </g>
</svg>