<svg
   width="2400"
   height="2400"
   viewBox="0 0 634.99999 635"
   xmlns:inkscape="http://www.inkscape.org/namespaces/inkscape"
   xmlns:sodipodi="http://sodipodi.sourceforge.net/DTD/sodipodi-0.dtd"
   xmlns="http://www.w3.org/2000/svg"
   xmlns:svg="http://www.w3.org/2000/svg">
  <g>
    <path
       id="path851"
       style="fill:#000000;fill-opacity:1;stroke:none;stroke-width:1px;stroke-linecap:butt;stroke-linejoin:miter;stroke-miterlimit:4;stroke-dasharray:none;stroke-opacity:1"
       d="m 283.67185,12.16444 -0.35784,1.29926 0.27836,0.98153 -0.68992,-0.10011 -0.38222,-0.94858 -0.29551,0.52983 -0.42373,-0.54204 -0.43712,0.52983 -0.87191,-2.06194 -0.24802,1.27208 -0.71922,-1.27208 -0.53123,0.86067 -0.90723,-0.68487 v 0.86066 l -0.79015,-0.76543 -0.25879,1.37826 -0.4223,0.12852 -0.84622,-1.01815 -0.40052,1.14392 -0.8255,-0.60188 -0.34187,-0.90704 -0.43593,1.11946 -0.28448,1.46744 -0.36761,-0.47613 -0.45299,0.25882 -0.37857,-0.57989 -0.40299,0.54326 -0.8487,-0.23562 -0.17701,0.81428 -0.60081,-0.55425 -0.86093,0.21117 -0.67284,-0.81305 -0.52993,0.75444 -1.33596,-0.95466 -0.4322,1.55653 -0.79129,-0.10991 -0.84142,-0.63117 -0.49936,1.23913 -0.39808,-1.23059 -0.72414,0.82649 -1.10882,-0.62871 0.25996,1.25377 -0.67888,0.89365 -0.81936,-0.18926 -0.15264,1.07432 -1.06783,0.71284 -0.66851,-1.54854 -0.19235,1.96361 -0.66552,-1.40028 0.0831,1.90324 -0.82915,-1.66069 -0.27719,1.58865 -1.08272,-0.98015 0.11414,1.5279 -0.94594,1.00148 -0.51288,0.0598 -0.47744,-0.57868 -0.24655,1.35757 -0.95857,0.23681 -0.0734,1.1854 -1.32314,-0.98873 -0.38953,0.85334 -1.05017,-1.69692 -0.47257,2.97021 -0.47137,-1.08409 -1.13194,0.42485 0.0308,1.6359 -0.72048,0.31619 -1.29928,-0.85945 -0.39896,0.5654 -0.13944,0.80801 -0.84343,0.52512 -0.94633,-0.45415 -0.38105,1.19516 -0.21856,0.36769 0.35289,1.19029 -2.26131,0.99148 -1.03937,2.12034 -2.08692,-0.17704 0.34196,0.64827 -0.71927,0.30764 0.44571,1.14145 -1.49584,0.62628 -0.0237,1.93253 -0.61299,1.03768 0.5666,1.41492 -2.27376,0.56627 0.91538,0.10526 -0.60875,1.18146 -1.93458,0.75597 -0.77646,0.75002 0.59897,0.65533 -0.58304,0.45042 -0.29001,0.54345 -0.40259,0.92069 -1.52515,0.31787 0.70214,1.13168 -0.0891,0.56524 0.14933,0.4652 -0.79776,0.006 -0.40173,0.743468 1.215,0.164793 -1.63752,1.629799 0.0804,0.615299 -0.69478,0.395536 0.65938,0.23563 -0.57636,0.581094 0.45426,0.277141 0.0291,0.556688 -0.40839,0.494681 0.37298,0.812797 0.94315,0.212381 -0.29322,0.35215 0.36635,-0.07321 -1.60313,1.046136 -0.51899,0.438274 0.34804,0.842357 1.01774,0.173495 -0.81017,0.467434 0.85181,0.648383 -0.78219,0.378317 -0.45731,0.990735 -0.53361,1.237903 0.2162,0.943679 -0.20273,1.069428 0.64426,0.396488 -0.59542,0.561848 0.17319,1.129247 -0.38222,0.273463 0.50311,0.754462 -0.31503,1.451533 -0.19164,3.392639 0.21005,0.725156 0.66892,0.245515 -0.25619,0.560224 -0.4811,1.09752 0.91948,0.377243 -0.81327,0.860637 0.56541,0.094 -0.0814,1.779942 0.181,0.738042 0.38437,0.960097 -0.0537,0.577442 -1.04775,0.389438 0.84138,0.636045 -0.54096,0.18923 0.0614,0.858239 1.07092,0.06593 -0.57391,0.942462 0.58977,-0.177017 0.38467,0.441936 -0.99842,1.053589 0.47867,0.206312 -0.17721,0.765434 -0.0296,0.902197 0.3993,0.556633 0.12573,0.404096 -0.19355,1.188371 0.78328,0.43775 -0.69725,0.762987 0.76806,0.439499 0.121,2.995425 0.53067,2.167641 -0.66724,1.726888 c 0,0 -1.21849,-0.489349 -2.19489,-0.575408 -0.81845,-0.07219 -1.45756,-0.143327 -2.29704,0.297477 -0.71672,0.376319 -1.38686,0.587793 -1.82277,1.269777 -0.78914,1.234737 -1.38208,2.004105 -1.78935,3.411733 -0.46068,1.59225 -0.9891,3.68179 -1.13208,5.33315 -0.11323,1.31143 -0.17345,2.25035 0.0382,3.54957 0.20343,1.24974 0.80376,2.40154 1.22599,3.59528 0.7047,1.99233 1.56153,3.93224 2.18093,5.95267 0.64444,2.102 0.47746,4.50563 1.59233,6.40069 0.45254,0.7692 0.77586,1.62575 1.37479,2.2874 0.78282,0.86466 1.98644,2.54882 2.91961,3.42601 0.97452,0.91609 2.00734,0.98895 2.9687,1.91884 0.40673,0.39341 1.19197,0.40555 1.19197,0.40555 l 0.3236,0.94855 0.22969,2.54297 0.16539,1.2388 -0.21407,1.09516 0.46465,-0.0319 0.0616,1.84846 0.46523,1.04747 -0.20535,0.55977 0.34102,0.67934 0.21244,0.82282 0.10063,0.3627 -0.12643,0.54924 -0.35901,1.40027 0.67527,-0.0439 -0.45139,0.73192 0.62603,0.1349 -0.25297,0.72027 0.55572,-0.077 -0.64836,0.94029 0.68748,-0.34454 0.0634,2.08097 0.97367,0.42049 -0.70949,0.59944 0.86944,0.11458 -0.16376,0.34793 0.35655,0.65923 -0.14508,0.70213 0.31816,0.0402 0.0143,0.42973 0.74609,0.23458 0.59468,0.64458 -0.59468,0.51031 0.6521,0.038 0.14531,0.68122 -0.50962,0.31507 0.66591,0.0498 -0.0332,0.87409 1.04404,0.26485 -0.16116,0.95345 0.46525,0.41994 0.0264,1.03162 0.74487,-0.0236 -0.0488,1.42751 0.47003,0.27186 c 0,0 0.32046,1.1788 0.49814,1.71646 0.44552,1.34824 0.72624,2.74693 1.01478,4.13728 0.48925,2.35735 0.93786,8.66795 0.93786,8.66795 0,0 -3.37267,-1.53164 -5.05738,-1.87889 -1.36052,-0.2803 -3.56617,-0.47909 -4.93251,-0.72972 -4.14196,-0.75954 -6.96175,-2.07682 -11.11059,-2.79726 -5.28765,-0.91812 -11.58124,-3.31098 -16.76424,-1.18555 -0.60934,0.24997 -0.95657,0.9242 -1.30523,1.48277 -0.39502,0.63291 -0.62546,1.35808 -0.85957,2.06639 -0.22991,0.69521 -0.38407,1.41409 -0.5312,2.1313 -0.14698,0.71715 -0.31133,1.43705 -0.35078,2.1681 -0.044,0.81949 0.0679,1.64031 0.1295,2.45869 0.10658,1.40292 0.82188,2.99204 0.41569,4.20027 -0.17981,0.47472 -0.78688,0.66672 -1.05652,1.09682 -0.30719,0.48996 -0.45376,1.06829 -0.60029,1.62773 -0.1947,0.74312 -0.28913,1.51091 -0.36457,2.2753 -0.0809,0.82106 -0.12146,1.64926 -0.0942,2.47337 0.0237,0.76832 0.0927,1.53413 0.15881,2.29999 0.17391,2.02289 0.45569,4.03558 0.62522,6.05884 0.19376,2.31105 -0.14132,5.21419 0.18763,7.50995 0.13965,1.30545 0.13942,1.7779 0.48542,2.5827 0.3431,0.79807 0.90332,1.33256 1.52737,2.11165 0.19256,0.24065 1.98314,2.01791 1.98314,2.01791 0,0 -7.92727,2.34259 -11.83643,3.68065 -5.57506,1.90829 -10.99609,4.24509 -16.55641,6.19592 -3.73844,1.31165 -7.55127,2.40381 -11.29424,3.70246 -2.40571,0.83464 -4.82999,1.6305 -7.17301,2.62759 -2.9331,1.24817 -5.82677,2.61135 -8.59605,4.18982 -2.69721,1.53733 -5.49952,2.99362 -7.77716,5.12428 -1.64583,1.53953 -2.9017,3.2189 -4.05888,5.03894 -1.59582,2.50987 -2.66359,5.31973 -3.91779,8.01653 -1.30685,2.80996 -2.63556,5.61512 -3.75752,8.5039 -1.21762,3.13505 -2.36868,6.3083 -3.22026,9.56193 -0.97071,3.70882 -1.56484,7.62876 -2.13978,11.30054 -0.36917,2.4728 -0.36771,5.23436 -0.43715,7.73367 -0.20157,7.25847 -0.34971,14.21548 -0.43199,21.47625 -0.0559,4.90506 0.088,6.98257 -0.18973,14.89594 -0.23583,6.71769 -0.50668,14.08197 -0.61668,19.30826 -0.0744,3.53565 -0.14581,7.07239 -0.18669,10.60889 -0.041,3.53652 -0.35742,7.9311 -0.30787,11.46722 0.0953,6.82512 0.48959,12.80298 1.06129,19.60481 0.40366,4.80219 0.66217,10.0317 1.58,14.76266 1.28595,6.62853 3.31787,12.75099 5.36454,19.18552 1.14643,3.60434 1.46511,5.25405 3.91189,11.5874 3.23385,8.3706 7.53804,20.12884 11.80309,30.59698 1.93349,4.74543 3.47063,9.74656 5.6526,14.4286 1.9117,4.10228 4.03415,8.12496 6.49525,11.92331 1.86778,2.88272 5.75478,7.07404 6.24495,8.19722 0.46218,2.65568 0.2626,3.99089 0.38873,6.63977 0.12098,2.54331 0.57632,6.40308 0.62121,8.82518 -0.11957,5.52773 0.17628,9.84289 0.89987,14.84064 0.21383,1.55945 0.1217,3.51197 0.31479,5.0741 0.28272,2.28592 1.02558,2.82662 1.12653,4.67481 0.17509,3.20411 -0.3804,6.4769 -0.5187,9.68277 -0.29773,6.90626 0.64956,14.85702 0.65818,20.7367 -0.001,-0.46848 -0.0142,-0.9619 -0.0264,-1.45286 36.51442,43.39738 90.2931,68.51531 147.01676,68.6657 h 0.89876 c 44.76075,-0.13065 88.08106,-15.82909 122.52968,-44.40208 -0.88553,-0.41799 -1.89526,-0.65432 -2.55579,-1.3588 -1.01262,-1.07992 -1.25603,-2.68189 -1.86344,-4.03227 -0.54893,-1.22045 -1.06979,-2.45341 -1.60946,-3.678 -0.73467,-1.66725 -1.92206,-3.19818 -2.21686,-4.99602 -0.23112,-1.40939 0.26376,-2.8442 0.39616,-4.26625 0.13044,-1.39954 0.31858,-2.79485 0.39259,-4.19849 0.19872,-3.76701 0.79002,-7.61569 0.13753,-11.31581 -0.81307,-6.29663 -1.94583,-11.11059 -2.71619,-16.69632 -0.27104,-1.96453 -0.2051,-3.98356 -0.66985,-5.91147 -0.577,-2.39419 -2.11502,-4.50059 -2.60389,-6.91433 -0.35555,-1.7557 0.009,-3.59207 -0.21217,-5.3698 -0.24889,-2.00845 -0.69355,-3.99555 -1.24921,-5.9417 -0.35358,-1.23835 -1.01832,-2.37895 -1.32127,-3.63066 -0.41172,-1.70114 -0.47924,-3.46821 -0.65937,-5.20917 -0.20227,-1.95287 -0.32406,-3.91322 -0.47257,-5.87087 -0.0999,-1.31966 -0.17275,-2.64139 -0.28215,-3.96031 -0.16021,-1.92757 -0.3229,-3.85559 -0.54806,-5.77659 -0.30941,-2.64002 -0.75189,-5.26288 -1.10297,-7.89766 -0.30551,-2.29282 -0.67977,-4.57911 -0.87331,-6.88414 -0.0806,-0.95747 -0.81891,-2.2212 -0.11933,-2.87999 1.11736,-1.05227 3.30671,0.30308 4.58163,0.46493 1.99438,0.25321 3.70285,1.01219 5.70765,1.16213 3.937,0.29456 8.09151,0.22725 12.03272,-0.003 3.51152,-0.20508 6.7859,-0.74142 10.22818,-1.46476 4.09321,-0.86016 8.74332,-2.26298 12.74919,-3.46591 3.05916,-0.91866 5.71754,-1.57602 8.73426,-2.62554 2.0246,-0.70432 3.95679,-1.70029 6.03721,-2.21697 3.00252,-0.7457 6.58839,-1.29241 9.60827,-1.96424 2.57238,-0.57235 5.36591,-0.87794 7.5465,-2.35741 3.00574,-2.03933 4.94956,-5.37599 6.86152,-8.46384 0.86831,-1.40237 1.22258,-3.5665 1.8575,-5.08886 0.63098,-1.51273 1.24788,-3.03448 1.74504,-4.59629 0.54176,-1.70185 1.03888,-3.42741 1.34323,-5.18726 0.27162,-1.57033 -0.55761,-3.0185 -0.12409,-4.55176 0.0863,-0.30435 0.34359,-0.54277 0.425,-0.84844 0.10729,-0.40317 0.0522,-0.83209 0.0697,-1.24894 0.0262,-0.69117 0.0164,-1.38422 0.0475,-2.07531 0.0435,-1.05405 0.27746,-2.10701 0.18925,-3.15828 -0.0699,-0.83579 -0.73723,-2.48568 -0.82679,-3.3197 -0.12737,-1.18777 0.0649,-2.38858 0.0475,-3.58304 -0.0212,-1.24272 -0.003,-2.49235 -0.16495,-3.72467 -0.17131,-1.30829 -0.59994,-2.57072 -0.84997,-3.86628 -0.27186,-1.40806 -0.32594,-2.61485 -0.5769,-4.0268 -0.25207,-1.41732 -0.51546,-2.83403 -0.80227,-4.24476 -0.54472,-2.67965 -1.08399,-5.3612 -1.74503,-8.0146 -0.35115,-1.40986 -0.70329,-2.80739 -1.04823,-4.21881 -0.13705,-0.56147 -0.20018,-1.13988 -0.35414,-1.69693 -0.15952,-0.57727 -0.41008,-1.12678 -0.58976,-1.69815 -0.79867,-2.53934 -1.40819,-5.13395 -2.16876,-7.68498 -0.56949,-1.91032 -1.1847,-3.80643 -1.7926,-5.70479 -0.8268,-2.58215 -1.66778,-5.16686 -2.60951,-7.71213 -0.54081,-1.46166 -1.11988,-2.90999 -1.74501,-4.33755 -0.67688,-1.54559 -1.48349,-3.03178 -2.16995,-4.57311 -0.49885,-1.12006 -0.92565,-2.27105 -1.41528,-3.39508 -1.14914,-2.63803 -2.42338,-5.22039 -3.57246,-7.85847 -0.85683,-1.96731 -1.60697,-3.98034 -2.47642,-5.94172 -1.06283,-2.3976 -2.22134,-4.75152 -3.34828,-7.11978 -0.70077,-1.4727 -1.39813,-3.10965 -2.14402,-4.56004 -0.77047,-1.49815 -1.67235,-2.92624 -2.4288,-4.43151 -0.79581,-1.58369 -1.46235,-3.22921 -2.21633,-4.83322 -1.0019,-2.13135 -2.01033,-4.26019 -3.06623,-6.36524 -1.00542,-2.00464 -2.14717,-4.35483 -3.24279,-6.31174 -0.81436,-1.45476 -1.75117,-2.83906 -2.57037,-4.29112 -0.65133,-1.15427 -1.25066,-2.33643 -1.86227,-3.51229 -0.40714,-0.78256 -0.84154,-1.55247 -1.20277,-2.35736 -0.56658,-1.26214 -0.98383,-2.50452 -1.46598,-3.80124 -0.33697,-0.90633 -0.54168,-1.86637 -0.9671,-2.73463 -0.57558,-1.17451 -1.39171,-2.21612 -2.12233,-3.30102 -0.7089,-1.05262 -1.48696,-2.05761 -2.19313,-3.11187 -0.95367,-1.42383 -1.85883,-2.87488 -2.71513,-4.35917 -0.6464,-1.12056 -1.24214,-2.27216 -1.79261,-3.44273 -0.60245,-1.28122 -1.03838,-2.63626 -1.65092,-3.91274 -0.71501,-1.48995 -1.56625,-2.91118 -2.35804,-4.36189 -0.88966,-1.63015 -1.46743,-3.06126 -2.40575,-4.66404 -0.57955,-0.98987 -1.21878,-1.94311 -1.81584,-2.92258 -0.43839,-0.71932 -0.84465,-1.45946 -1.29807,-2.1694 -0.97732,-1.53034 -2.04579,-2.99956 -3.06499,-4.50236 -1.41068,-2.07995 -2.52886,-4.21488 -4.24309,-6.05298 -0.31306,-0.33576 -0.77005,-0.51381 -1.08437,-0.84845 -0.45662,-0.48624 -0.7235,-1.12313 -1.13192,-1.65054 -0.79134,-1.02176 -1.66536,-1.97795 -2.54732,-2.9226 -0.63717,-0.68245 -1.36613,-1.27725 -1.98062,-1.98016 -0.81936,-0.93732 -1.25114,-1.47138 -1.93876,-2.14772 -1.13652,-1.11774 -2.66187,-1.85834 -3.60268,-3.14513 -0.50932,-0.69657 -0.59261,-1.63115 -1.03079,-2.3745 -0.17391,-0.29482 -0.62605,-0.8138 -0.62605,-0.8138 0,0 -0.68292,-0.72731 -1.24339,-1.34867 -0.36795,-0.40788 -0.85521,-0.72118 -1.36763,-0.91927 -0.75581,-0.29212 -1.6882,0.0237 -2.40559,-0.354 -0.40865,-0.21475 -0.55822,-0.7593 -0.94279,-1.01454 -0.28591,-0.18946 -0.65863,-0.20269 -0.96702,-0.35278 -0.3745,-0.18262 -0.70679,-0.44144 -1.06117,-0.6605 -0.79243,-0.48959 -1.5557,-1.03202 -2.38244,-1.46128 -1.05606,-0.54838 -2.20041,-0.90886 -3.27745,-1.41491 -0.84635,-0.39763 -1.48777,-0.65885 -2.36958,-0.96984 -2.09052,-0.73734 -4.36139,-0.81576 -6.50854,-1.36731 -2.97666,-0.76462 -5.80681,-2.07656 -8.81896,-2.687 -1.5568,-0.31552 -3.15407,-0.41017 -4.74038,-0.49566 -5.13598,1.01851 -4.58758,-0.0237 -9.14982,-1.18103 -1.06764,-0.25817 -2.17863,-0.29626 -3.25432,-0.51884 -1.55705,-0.32195 -3.09327,-0.74097 -4.6219,-1.17806 -0.99909,-0.28557 -1.97337,-0.65316 -2.97103,-0.94368 -0.99947,-0.29111 -2.01584,-0.52234 -3.01861,-0.8021 -2.85469,-0.79619 -6.35799,-0.96688 -9.00588,-2.27275 -0.15428,-0.0761 -0.0119,-1.16655 0.16943,-1.71064 0.19072,-0.57711 0.19733,-1.35841 0.57378,-1.86452 0.53086,-0.71383 1.45439,-1.13765 1.68442,-1.90648 0.13941,-0.46623 0.10657,-0.51644 0.21714,-1.11011 0.17015,-0.9134 -0.12028,-2.32113 -0.20129,-2.52863 -0.24482,-0.65778 -0.65932,-1.27208 -1.17843,-1.74454 -0.99375,-0.90431 -2.26973,-1.4886 -3.53761,-1.93375 -1.44608,-0.5078 -3.83794,-0.8928 -3.83794,-0.8928 0.23489,-0.9017 0.5225,-1.55959 0.98393,-2.22727 0.39116,-0.56599 1.06725,-0.8908 1.47129,-1.44765 0.64958,-0.89518 1.10729,-2.13037 1.47857,-2.97023 0.18857,-0.42626 0.24652,-0.91885 0.27951,-1.39049 0.15383,-2.19271 -0.11721,-4.22253 -0.38417,-6.58321 -0.29576,-2.59181 -0.36113,-5.25842 -1.17354,-7.73741 -0.23204,-0.70821 -0.66378,-1.33571 -1.03793,-1.9802 -0.46855,-0.80693 -0.92779,-1.62767 -1.50929,-2.3574 -0.7552,-0.94744 -1.60245,-1.83424 -2.54603,-2.59416 -1.67799,-1.35136 -3.55254,-2.46254 -5.47185,-3.44148 -1.99197,-1.01595 -4.67892,-1.93734 -6.70229,-2.88915 -0.37243,-0.17529 -0.26056,-1.67355 -0.26056,-1.67355 l -0.14156,-0.37723 0.42376,-0.23577 -0.0463,-0.51883 0.58983,-0.35283 -0.33094,-0.75446 h 0.66059 l 0.18812,-1.22689 0.0709,-0.91926 0.51896,0.26017 0.73149,-0.0236 -0.40177,-0.73005 0.44815,-1.22569 -0.28215,-0.80206 0.801,0.0236 0.47136,-0.56523 -0.70697,-1.01447 0.9439,0.47123 0.63617,-0.094 -0.58979,-0.84846 0.47136,-0.32955 0.68387,-0.1649 -0.094,-0.70806 -0.37733,-0.47123 -0.14155,-0.84848 0.14155,-1.88615 0.70821,1.65055 0.42373,0.56523 0.14179,-0.70686 -0.70702,-1.36729 -0.0238,-0.87289 0.96592,-0.25882 -0.91948,-1.06089 v -1.27405 l 1.06113,-0.68366 -0.70699,-0.77765 0.3297,-1.29649 0.47254,-0.0709 c 0,0 -0.30509,-0.69259 -0.37734,-1.06089 -0.12145,-0.61899 -0.0702,-1.25982 -0.0865,-1.8904 -0.0754,-2.87691 -0.0659,-5.75567 -0.0573,-8.63355 0.005,-2.20032 -0.32453,-4.48848 -0.22092,-6.6864 0.066,-1.40312 0.42987,-2.74707 0.59973,-4.4536 0.0921,-0.92627 0.38087,-2.78095 0.45061,-3.70916 0.15573,-2.06973 -0.0265,-3.49022 -0.15999,-5.22897 -0.10634,-1.3943 -0.14978,-2.8126 -0.50874,-4.16411 -0.15688,-0.59033 -0.50374,-1.05491 -0.70967,-1.68939 -0.18127,-0.55751 0.009,-1.13102 -0.10589,-1.81669 -0.11885,-0.70771 -0.17698,-1.12521 -0.21976,-1.930106 -0.0397,-0.756046 -0.0625,-1.901967 -0.18925,-2.534396 -0.17487,-0.87113 -0.37251,-1.737061 -0.59714,-2.596663 -0.31745,-1.215504 -0.65858,-2.294911 -0.88527,-3.530557 -0.21881,-1.193962 -0.16402,-2.422652 -0.28332,-3.630668 -0.14295,-1.449211 -0.36666,-2.88928 -0.51895,-4.337529 -0.14534,-1.381191 -0.23781,-2.767672 -0.37735,-4.149537 -0.82108,-8.129098 -1.16001,-17.317622 -2.84477,-25.799391 -0.13825,-0.696027 -0.46893,-2.076596 -0.46893,-2.076596 l -0.26262,-0.870429 -0.56536,-2.475808 -1.08432,-2.38057 -0.80232,-2.16938 -1.98062,-2.26338 -1.48611,-2.30977 -0.98012,-0.19812 0.99036,0.0939 -0.80105,-0.61285 -0.89633,-0.94368 -0.91948,-1.01328 0.68381,-0.32962 -1.86343,-1.13167 0.47136,-0.8497 -1.39084,-0.84845 -1.48611,-1.69693 -0.23585,-0.9437 -0.70699,0.23564 -0.0711,-1.01326 -0.73152,0.25882 -0.99031,-1.01329 -0.61296,-0.21238 -0.51895,-0.37725 0.33086,-0.70682 -1.93424,-0.42486 0.74732,-1.14633 -1.31143,-0.4102 -0.29798,-0.41019 -0.74366,-0.73248 -0.79862,-0.12937 -0.57515,-0.11356 -0.43966,-1.2562 -0.74848,0.47366 -0.50924,-0.71783 -0.48842,-0.5042 -0.42987,-1.06333 -0.84254,0.10502 -0.58859,-0.73734 -1.48617,0.0537 -1.7926,-0.28202 1.32371,-0.53351 -1.38594,-0.19774 0.1855,-0.3101 -0.9891,-0.0672 0.55563,-0.63847 -1.09299,-0.116 -1.61555,-0.11843 0.8536,-0.98028 -1.21992,-0.0647 -0.17581,-0.55304 -1.53249,0.89119 0.11723,-0.77767 -0.9195,0.87167 -0.82548,-1.33189 -0.82542,-0.083 0.15761,-0.98029 -0.84132,0.33205 -0.95499,0.16603 -0.0309,-1.30261 -0.75952,1.01938 -0.47132,-0.78983 -0.74552,1.34601 -0.67892,-0.67143 -0.37854,1.0328 -1.01722,-1.41614 -0.99885,-0.11598 -0.57761,-0.44805 -0.83768,0.1294 0.15952,-1.60631 -0.37732,0.94366 -1.17835,-1.03767 0.28213,1.79215 -1.03669,-0.42485 -0.33097,-1.83853 -0.56534,1.93254 z M 169.71483,575.44228 c 0.0568,1.49098 0.18739,2.9732 0.34439,4.46085 -0.15692,-1.48722 -0.28739,-2.97032 -0.34439,-4.46085 z m 0.34439,4.46085 c 0.10609,1.0055 0.29838,2.00168 0.52752,2.99223 -0.22898,-0.99095 -0.42141,-1.98636 -0.52752,-2.99223 z m 272.52247,12.17999 c 0.12337,0.15049 0.26056,0.29109 0.36145,0.45656 0.38888,0.63908 0.57279,1.39073 0.73146,2.1218 -0.1588,-0.73107 -0.34134,-1.48272 -0.73022,-2.1218 -0.10086,-0.1656 -0.23926,-0.30583 -0.36269,-0.45656 z m 1.09291,2.57836 c 0.2445,1.12639 0.24829,2.29291 0.3297,3.44268 0.0486,0.69054 0.029,1.38491 0.0941,2.07412 0.0725,0.77454 0.28887,1.53422 0.33097,2.31101 -0.0423,-0.77679 -0.25707,-1.53641 -0.32973,-2.31101 -0.0647,-0.68921 -0.0451,-1.38358 -0.0941,-2.07412 -0.0813,-1.14977 -0.0863,-2.31629 -0.33094,-3.44268 z m -272.4248,2.91164 c -0.0795,0.89469 0.009,2.64054 0.0118,2.70772 -0.002,-0.0508 -0.0906,-1.80875 -0.0118,-2.70772 z m 0.1089,3.9261 c 0.0716,0.65045 0.18928,1.42279 0.37489,1.90931 -0.18526,-0.48652 -0.30307,-1.25878 -0.37489,-1.90931 z m 0.37489,1.90931 c 0.18361,0.48175 0.42907,0.94107 0.71682,1.37467 -0.28742,-0.43357 -0.53326,-0.89289 -0.71682,-1.37467 z m 273.1123,1.45769 c 0.20134,0.31269 0.4114,0.62297 0.52628,0.9705 -0.11486,-0.34761 -0.32478,-0.65786 -0.52628,-0.9705 z m 0.52628,0.9705 c 0.24014,0.7262 0.16613,1.52839 0.37735,2.26337 -0.21125,-0.73498 -0.13706,-1.53717 -0.37735,-2.26337 z m -268.15575,3.02889 c 0.33355,0.24935 0.59266,0.45747 0.77906,0.6739 -0.18644,-0.21664 -0.44505,-0.42408 -0.77906,-0.6739 z m 268.88722,0.0832 c 0.13422,0.27678 0.26725,0.55425 0.3529,0.84844 0.20534,0.70454 0.30046,1.4396 0.37735,2.16938 0,0.009 0.003,0.0143 0,0.0238 0,-0.009 0,-0.0143 0,-0.0238 -0.0771,-0.72978 -0.1718,-1.46484 -0.37735,-2.16938 -0.0858,-0.29427 -0.22,-0.57134 -0.35412,-0.84844 z m -267.76746,1.31969 c 0.0675,0.47639 0.0325,3.9497 0.13918,6.85718 -0.0991,-2.87208 -0.0727,-6.38998 -0.13918,-6.85718 z m 273.01827,14.82299 c 0.60968,1.11432 1.21412,2.23166 1.70469,3.40114 0.44749,1.0668 1.0021,2.71082 1.44459,4.0885 -0.4423,-1.37763 -0.99589,-3.0217 -1.44335,-4.0885 -0.49078,-1.16996 -1.09585,-2.28645 -1.70593,-3.40114 z"
       sodipodi:nodetypes="cccccccccccccccccccccccccccccccccccccccccccccccccccccccccccccccccccccccccccccccccccccccccccccccccccccccccccccccccccccccccccccccccccccccccccccccccccccccccccccccccccccscsccsssssscccccccccccccccccccccccccccccccccccccccccccccssccccaaaaaacaaaccccaccaaaaasaaaacscssscsssssaacsccssccccccsaaaaacaaaaaaaaaaaaasccsssssssssscsccssccccsssssssaaaaassssscsssssssssssssssssssssaaacssccccsssssccccscssssscsscaasacascsscccccccccccccccccccccccccccccccccccccccaaccccaacccscccsssccccccccccccccccccccccccccccccccccccccccccccccccccccccccccccccccccccccccccccccccccccccscccscsccccccccccccccccccccsccccsssccccscsc" />
  </g>
</svg>
